<svg width="580" height="400" xmlns="http://www.w3.org/2000/svg">
 <!-- Created with Method Draw - http://github.com/duopixel/Method-Draw/ -->

 <g>
  <title>background</title>
  <rect fill="#f5f5f5" id="canvas_background" height="402" width="582" y="-1" x="-1"/>
  <g display="none" overflow="visible" y="0" x="0" height="100%" width="100%" id="canvasGrid">
   <rect fill="url(#gridpattern)" stroke-width="0" y="0" x="0" height="100%" width="100%"/>
  </g>
 </g>
 <g>
  <title>Layer 1</title>
  <g stroke="null" id="svg_19">
   <g stroke="null" transform="matrix(0.6839818129870998,0,0,0.6872325503411875,-2823.7260795016696,-1759.430101371926) " id="svg_9">
    <path stroke="null" id="svg_11" d="m4585.746549,2743.630025l-76.674,0l-8.83,16l77.504,0l8,-16z"/>
    <circle stroke="null" id="svg_12" r="40" cy="2879.630025" cx="4742.690549"/>
    <path stroke="null" id="svg_13" d="m4649.746549,2743.630025l-46.112,0l-8,16l46.112,0l8,-16z"/>
    <path stroke="null" id="svg_14" d="m4861.544549,2863.080025a105.37,105.37 0 0 0 1.146,-15.45a104,104 0 0 0 -104,-104l-91.056,0l-8,16l83.056,0a120.179,120.179 0 0 1 118.854,103.45z"/>
    <path stroke="null" id="svg_15" d="m4742.690549,2775.630025l-248,0l0,80l137.143,0a8,8 0 0 1 7.919,9.133a105.32,105.32 0 0 0 -1.062,14.867a104,104 0 1 0 104,-104zm0,160a56,56 0 1 1 56,-56a56.063,56.063 0 0 1 -56,56z"/>
    <path stroke="null" id="svg_16" d="m4454.690549,2887.630025l40,0l0,16l-40,0l0,-16z"/>
    <path stroke="null" id="svg_17" d="m4510.690549,2887.630025l16,0l0,16l-16,0l0,-16z"/>
    <path stroke="null" id="svg_18" d="m4918.273549,2848.569025a162.112,162.112 0 0 0 -15.683,-51.033a16.2,16.2 0 0 0 3.424,-2.6a16,16 0 0 0 -11.324,-27.306l-46.579,0a120.141,120.141 0 0 1 20.571,32l17.064,0l2.508,5.017a146.113,146.113 0 0 1 14.236,46.583c0.011,0.1 0.024,0.2 0.038,0.3a146.589,146.589 0 0 1 -22.052,97.66a162.418,162.418 0 0 0 -25.786,87.76l0,10.68a40,40 0 0 0 80,0l0,-96.63a327.17,327.17 0 0 0 -16.417,-102.431zm0.417,199.061a24,24 0 0 1 -48,0l0,-10.68a146.438,146.438 0 0 1 23.24,-79.115a162.419,162.419 0 0 0 21.59,-51.233a311.991,311.991 0 0 1 3.17,44.4l0,96.628z"/>
   </g>
  </g>
  <g stroke="null" id="svg_25">
   <path stroke="null" id="svg_24" fill="#ffc107" d="m132.184547,159.627931c-0.443332,-1.189111 -1.65965,-2.03365 -3.098665,-2.146076l-19.54675,-1.539044l-7.729354,-15.687081c-0.569928,-1.149651 -1.867866,-1.893866 -3.309976,-1.893866s-2.740048,0.744214 -3.309976,1.896546l-7.729315,15.6844l-19.549884,1.539044c-1.436417,0.115146 -2.649639,0.956965 -3.095532,2.146076c-0.445931,1.189072 -0.034085,2.49329 1.052504,3.315477l14.775061,11.235828l-4.356825,16.641444c-0.3188,1.223604 0.228888,2.488402 1.399734,3.222288c0.629347,0.394242 1.365649,0.594969 2.108141,0.594969c0.640161,0 1.27524,-0.149639 1.84513,-0.44533l16.860963,-8.738044l16.854773,8.738044c1.23336,0.643377 2.788119,0.584681 3.956366,-0.149679c1.171342,-0.736094 1.718534,-2.001365 1.399734,-3.222248l-4.356825,-16.641444l14.775061,-11.23362c1.086627,-0.824395 1.50153,-2.126366 1.055637,-3.317685zm0,0"/>
  </g>
  <g transform="rotate(-0.48858675360679626 183.4998168945387,222.50009155273642) " stroke="null" id="svg_29">
   <path stroke="null" id="svg_28" fill="#ffc107" d="m217.184819,215.628112c-0.443333,-1.189111 -1.65965,-2.03365 -3.098666,-2.146076l-19.54675,-1.539045l-7.729354,-15.68708c-0.569928,-1.149652 -1.867865,-1.893866 -3.309976,-1.893866s-2.740048,0.744214 -3.309976,1.896546l-7.729316,15.6844l-19.549883,1.539045c-1.436417,0.115146 -2.64964,0.956965 -3.095532,2.146076c-0.445931,1.189072 -0.034085,2.49329 1.052503,3.315477l14.775061,11.235828l-4.356824,16.641445c-0.318801,1.223604 0.228888,2.488401 1.399734,3.222288c0.629347,0.394241 1.365648,0.594969 2.108141,0.594969c0.640161,0 1.275239,-0.149639 1.845129,-0.44533l16.860963,-8.738045l16.854773,8.738045c1.233359,0.643377 2.788118,0.584681 3.956365,-0.149679c1.171343,-0.736094 1.718535,-2.001364 1.399734,-3.222248l-4.356825,-16.641445l14.775061,-11.23362c1.086627,-0.824395 1.50153,-2.126366 1.055638,-3.317685zm0,0"/>
  </g>
  <g stroke="null" id="svg_31">
   <path stroke="null" id="svg_30" fill="#ffc107" d="m225.184849,116.627791c-0.443333,-1.189111 -1.65965,-2.03365 -3.098666,-2.146076l-19.54675,-1.539045l-7.729354,-15.68708c-0.569928,-1.149652 -1.867865,-1.893866 -3.309976,-1.893866s-2.740048,0.744214 -3.309976,1.896546l-7.729316,15.6844l-19.549883,1.539045c-1.436417,0.115146 -2.64964,0.956965 -3.095532,2.146076c-0.445931,1.189072 -0.034085,2.49329 1.052503,3.315477l14.775061,11.235828l-4.356824,16.641445c-0.318801,1.223604 0.228888,2.488401 1.399734,3.222288c0.629347,0.394241 1.365648,0.594969 2.108141,0.594969c0.640161,0 1.275239,-0.149639 1.845129,-0.44533l16.860963,-8.738045l16.854773,8.738045c1.233359,0.643377 2.788118,0.584681 3.956365,-0.149679c1.171343,-0.736094 1.718535,-2.001364 1.399734,-3.222248l-4.356825,-16.641445l14.775061,-11.23362c1.086627,-0.824395 1.50153,-2.126366 1.055638,-3.317685zm0,0"/>
  </g>
 </g>
</svg>